<svg id="Layer_1" data-name="Layer 1" xmlns="http://www.w3.org/2000/svg" xmlns:xlink="http://www.w3.org/1999/xlink" viewBox="0 0 220.59 191.93"><defs><style>.cls-1{fill:none;}.cls-2{clip-path:url(#clip-path);}</style><clipPath id="clip-path" transform="translate(-12.89 -11.2)"><rect class="cls-1" x="-79.24" y="-79.66" width="408.83" height="382.6"/></clipPath></defs><polygon points="112.28 41.55 112.28 92.02 97.15 111.05 97.16 52.28 112.28 41.55"/><g class="cls-2"><path d="M110.05,56.93l15.13-10.72a19.87,19.87,0,1,1,29.34,17.47,23.23,23.23,0,0,1-9.47,2.4V81.21a35,35,0,1,0-35-35Z" transform="translate(-12.89 -11.2)"/></g><g class="cls-2"><polygon points="214.55 121.08 207.21 121.08 203.44 128.01 203.44 128.31 208.94 128.31 214.55 121.33 214.55 121.08"/></g><g class="cls-2"><path d="M232.39,143.08h-26.7v6.52h26.7ZM34.79,149.5a7,7,0,0,1,3.15.7A5.88,5.88,0,0,1,40,152a6.38,6.38,0,0,1,1.05,2.47,6.91,6.91,0,0,1,0,2.68,6.17,6.17,0,0,1-1.05,2.47,5.71,5.71,0,0,1-2.1,1.81,7,7,0,0,1-3.16.7H18V178.8H24.7V168.31H34.79a14.83,14.83,0,0,0,5.18-.87,11.81,11.81,0,0,0,6.46-5.67,12.68,12.68,0,0,0,1.28-4,13,13,0,0,0,0-4.18,12.74,12.74,0,0,0-1.3-4,11.44,11.44,0,0,0-2.58-3.35A11.66,11.66,0,0,0,40,144a14.72,14.72,0,0,0-5.16-.87q-4.21,0-8.41,0H18v6.42ZM85,142.42a20.26,20.26,0,0,0-6.65,1.05,16.42,16.42,0,0,0-8.79,7.09,19.33,19.33,0,0,0-2.19,5.11c-.17.66-.31,1.32-.43,2h6.7a13,13,0,0,1,1.27-3.44,11.47,11.47,0,0,1,2.28-2.92,10.41,10.41,0,0,1,3.35-2,12.93,12.93,0,0,1,4.46-.75,12.68,12.68,0,0,1,4.45.75,10.24,10.24,0,0,1,3.32,2,11.13,11.13,0,0,1,2.26,2.9,14,14,0,0,1,1.27,3.45v0H103a20.17,20.17,0,0,0-.43-2,19.14,19.14,0,0,0-2.16-5.1,17.09,17.09,0,0,0-3.67-4.21,16.66,16.66,0,0,0-5.14-2.86A20.22,20.22,0,0,0,85,142.42m-23.73,22a21,21,0,0,0,.48,2.36,18.26,18.26,0,0,0,2.14,5,16,16,0,0,0,3.62,4.09,16.36,16.36,0,0,0,5.16,2.77,21.38,21.38,0,0,0,6.72,1,21,21,0,0,0,6.71-1,16,16,0,0,0,5.11-2.8,16.25,16.25,0,0,0,3.6-4.13,18.74,18.74,0,0,0,2.13-5,21.42,21.42,0,0,0,.48-2.25H90.72c0,.14-.06.27-.1.41a12.87,12.87,0,0,1-1.29,3.3,10.15,10.15,0,0,1-2.22,2.76,10,10,0,0,1-3.28,1.9,13.24,13.24,0,0,1-4.43.7,13.57,13.57,0,0,1-4.44-.69,10.15,10.15,0,0,1-3.28-1.89,10.9,10.9,0,0,1-2.24-2.74,13.27,13.27,0,0,1-1.3-3.3c0-.15-.07-.3-.1-.45Zm78.42,5.3a11.57,11.57,0,0,1-2.67,2,13.77,13.77,0,0,1-3.11,1.22,12.66,12.66,0,0,1-3.19.42,14.92,14.92,0,0,1-4.65-.69,10.76,10.76,0,0,1-3.47-1.86,10.45,10.45,0,0,1-2.35-2.72,12.23,12.23,0,0,1-1.36-3.28,15,15,0,0,1-.45-3.53,14,14,0,0,1,.44-3.57,12.34,12.34,0,0,1,1.38-3.37,11.4,11.4,0,0,1,2.4-2.8,11.26,11.26,0,0,1,3.48-1.93,14.25,14.25,0,0,1,4.58-.71,13.47,13.47,0,0,1,3.1.36,12.53,12.53,0,0,1,2.93,1.11,11.54,11.54,0,0,1,2.59,1.89l4.48-4.33a18.93,18.93,0,0,0-6.11-4.08,18.26,18.26,0,0,0-7-1.37,21.49,21.49,0,0,0-6.92,1.06,16.92,16.92,0,0,0-5.31,2.87,16.67,16.67,0,0,0-3.75,4.22,18.9,18.9,0,0,0-2.21,5.12,21,21,0,0,0-.71,5.53,21.85,21.85,0,0,0,.71,5.48,18.35,18.35,0,0,0,2.15,5,15.77,15.77,0,0,0,3.68,4.11,17,17,0,0,0,5.31,2.79,23.32,23.32,0,0,0,7,1,20.52,20.52,0,0,0,7.33-1.29,18,18,0,0,0,6.23-4Zm25.35-11.46v-15h-6.73V178.8h6.73V164.43h17.53V178.8h6.68V158.22H165.05Zm40.64-.36V178.8h26.7v-6.62h-20v-8.05H227v-6.27Z" transform="translate(-12.89 -11.2)"/></g><rect x="169.58" y="182.68" width="6.92" height="1.61"/><path d="M120.42,203.09H122L120,199.82a3.08,3.08,0,0,0-1.13-5.95h-4.47v1.51h4.49a1.55,1.55,0,0,1,0,3.1h-4.49v4.61h1.51V200h2.65Z" transform="translate(-12.89 -11.2)"/><path d="M110.29,195.24c0,.51,0,3.54-.09,4.06a3.12,3.12,0,0,1-6,0c-.13-.52-.1-3.55-.1-4.06l-1.51-1.37a51,51,0,0,0,.17,5.92,4.64,4.64,0,0,0,8.88,0,51,51,0,0,0,.17-5.92Z" transform="translate(-12.89 -11.2)"/><path d="M32.44,203.09H34L32,199.82a3.08,3.08,0,0,0-1.12-5.95H26.43v1.51h4.49a1.55,1.55,0,0,1,0,3.1H26.43v4.61h1.51V200h2.65Z" transform="translate(-12.89 -11.2)"/><path d="M218.59,195.55h-7.75v5.77h7.75v-2h-4v-1.61h5.63v3.15c0,1.79-.61,2.19-2.32,2.19h-6.38c-1.71,0-2.26-.44-2.26-2.19v-4.81c0-1.75.54-2.21,2.26-2.21h6.38c1.64,0,2.32.38,2.32,2.12v.21h-1.6Z" transform="translate(-12.89 -11.2)"/><path d="M42.6,196a3.14,3.14,0,1,0,0,5l1.13,1a4.66,4.66,0,1,1,0-7L42.59,196" transform="translate(-12.89 -11.2)"/><path d="M88.16,196a3.14,3.14,0,1,0,0,5l1.13,1a4.66,4.66,0,1,1,0-7L88.15,196" transform="translate(-12.89 -11.2)"/><rect x="111.63" y="182.68" width="6.92" height="1.61"/><rect x="60.3" y="182.68" width="6.92" height="1.61"/><path d="M155.45,200.64l2.12-1.76-1.22-1-2.13,1.78L149.89,196v-.66h3v1.24l1.68-.28c0-1,.21-2-1.11-2.3a11.2,11.2,0,0,0-2.83-.12c-.8,0-2.1,0-2.41,1a3.24,3.24,0,0,0-.07,1.42,1.85,1.85,0,0,0,.77,1.15L147,198.59a1.81,1.81,0,0,0-1.16,1.71c0,2,.11,2.79,2.34,2.79h3.13c1.53,0,1.65-.36,2.7-1.28l1.52,1.28h2.81Zm-3.49.84H147.7v-1.57l2.37-1.46,2.75,2.3Z" transform="translate(-12.89 -11.2)"/><rect x="192.36" y="182.68" width="1.61" height="1.51"/><rect x="192.36" y="185.48" width="1.61" height="6.41"/><polygon points="6.7 182.68 11.55 191.89 9.3 191.89 5.75 184.47 2.15 191.89 0 191.89 4.79 182.68 6.7 182.68"/><polygon points="33.49 191.89 33.49 187.94 33.49 186.26 33.49 182.68 35.09 182.68 35.09 186.33 41.24 186.33 41.24 191.89 39.63 191.89 39.63 187.94 35.09 187.94 35.09 191.89 33.49 191.89"/><rect x="44.23" y="185.48" width="1.61" height="6.41"/><rect x="44.23" y="182.68" width="1.61" height="1.51"/><path d="M225.47,197.64l-.29-.24-.43-.39c-.12-.12-.24-.23-.35-.36l.09,4.88v1.56h-1.9v-9.21h1.47l2.68,2.22,2.94,2.44v2.61l-.36-.3-4-3.33" transform="translate(-12.89 -11.2)"/><polygon points="218.68 182.68 220.59 182.68 220.59 184.31 220.59 189.11 220.59 191.89 219.11 191.89 218.68 191.53 218.68 189.01 218.68 182.68"/><polygon points="113.24 187.87 113.24 190.13 118.62 190.13 118.62 191.89 111.63 191.89 111.63 186.26 117.99 186.26 117.99 187.87 113.24 187.87"/><polygon points="171.19 187.87 171.19 190.13 176.57 190.13 176.57 191.89 169.58 191.89 169.58 186.26 175.94 186.26 175.94 187.87 171.19 187.87"/><path d="M200.68,196.08v-.59h-6.62c0,.66,0,1.31,0,2h6.06c1.33,0,2.21.24,2.33,1.76h-7.69c-1.32,0-2.19-.26-2.3-1.76,0-.66,0-1.31,0-2,.16-1.45,1.05-1.61,2.29-1.61H200c1.46,0,2.29.42,2.29,2v.19Z" transform="translate(-12.89 -11.2)"/><path d="M193.67,201.34h8.75c-.12,1.5-1,1.75-2.32,1.75h-5.72c-1.72,0-2.32-.42-2.32-2.2v-.26h1.61Z" transform="translate(-12.89 -11.2)"/><path d="M175.27,203.09h-4.61v-1.61h4.61a3.35,3.35,0,0,0,.63,0l.28-.07.26-.09.25-.12.24-.15a3,3,0,0,0,.47-.39,3.55,3.55,0,0,0,.4-.47,2,2,0,0,0,.14-.25,1.92,1.92,0,0,0,.12-.25,2,2,0,0,0,.09-.26,2.68,2.68,0,0,0,.07-.27,3.34,3.34,0,0,0,0-1.26,2.68,2.68,0,0,0-.07-.27c0-.09-.06-.18-.09-.27s-.07-.16-.12-.24a2,2,0,0,0-.14-.25,3.55,3.55,0,0,0-.4-.47,3,3,0,0,0-.47-.39,1.58,1.58,0,0,0-.24-.15l-.25-.12-.26-.09-.28-.07a3.35,3.35,0,0,0-.63-.05h-4.61v-1.61h4.61a4.61,4.61,0,1,1,0,9.22Z" transform="translate(-12.89 -11.2)"/><polygon points="61.91 187.87 61.91 190.13 67.3 190.13 67.3 191.89 60.3 191.89 60.3 186.26 66.66 186.26 66.66 187.87 61.91 187.87"/><polygon points="54.16 186.95 54.16 187.52 54.16 191.89 52.64 191.89 52.64 188.6 52.64 188.03 52.64 184.18 48.79 184.18 48.79 182.67 58.03 182.67 58.03 184.18 54.16 184.18 54.16 186.95"/><polygon points="83.8 186.95 83.8 187.52 83.8 191.89 82.29 191.89 82.29 188.6 82.29 188.03 82.29 184.18 78.43 184.18 78.43 182.67 87.67 182.67 87.67 184.18 83.8 184.18 83.8 186.95"/></svg>